<?xml version="1.0" encoding="utf-8"?>
<!-- Generator: Adobe Illustrator 19.1.0, SVG Export Plug-In . SVG Version: 6.00 Build 0)  -->
<svg version="1.1" id="Layer_1" xmlns="http://www.w3.org/2000/svg" xmlns:xlink="http://www.w3.org/1999/xlink" x="0px" y="0px"
	 viewBox="-51 289.6 508.1 215.4" style="enable-background:new -51 289.6 508.1 215.4;" xml:space="preserve">
<style type="text/css">
	.st0{fill:#FFFFFF;}
	.st1{fill:#F47B24;}
</style>
<path class="st0" d="M313.8,318.7c-2.2,0-3.7,1.5-4,3.7c-0.3,2,0.8,3.6,2.9,3.6c1.5,0,2.9-0.9,3.4-2.5h-1.5
	c-0.2,0.8-0.9,1.2-1.6,1.2c-1.2,0-1.7-1.2-1.5-2.4c0.2-1.3,0.9-2.4,2.2-2.4c0.8,0,1.3,0.4,1.3,1.1h1.5
	C316.3,319.6,315.3,318.7,313.8,318.7"/>
<path class="st0" d="M313.9,316.1c-3.5,0-6.8,2.8-7.3,6.3c-0.6,3.5,1.8,6.3,5.3,6.3s6.8-2.8,7.3-6.3
	C319.8,318.9,317.5,316.1,313.9,316.1 M317.6,322.4c-0.4,2.8-2.7,4.7-5.4,4.7c-2.7,0-4.4-1.9-3.9-4.7c0.4-2.8,2.7-4.7,5.4-4.7
	C316.4,317.8,318.1,319.6,317.6,322.4"/>
<path class="st0" d="M15.5,363.6H16l7.6,22.5h29.3l-11.7-22.7c-1.1-2-2.5-3.2-3.6-4.2l0.1-0.6c10-3.2,14.8-7.6,16.4-18.2
	c2.8-17.6-9.5-24.3-25.3-24.3H-1.9l-11.1,70h24.9L15.5,363.6z M20,335.2h2c4.4,0,8.1,0.6,7.2,6c-0.8,5.2-5.1,5.8-9.3,5.8h-1.8
	L20,335.2z"/>
<polygon class="st0" points="107.7,367 85.6,367 86.7,360.1 106.2,360.1 109.1,341.9 89.5,341.9 90.6,335.2 112,335.2 115,316.1 
	68,316.1 56.9,386.1 104.7,386.1 "/>
<path class="st0" d="M145.9,386.1c12.2,0,26.4-4.9,28.7-19.3c1.3-8.4-2.6-13.9-9.8-16.6l0.1-0.6c6.4-2,10.4-8,11.4-14.1
	c2.6-16.1-10.8-19.4-24.3-19.4h-29.6l-11.1,70H145.9z M143.3,333h1.8c3.7,0,8.5-0.4,7.7,4.8c-0.8,4.8-5,5.2-8.7,5.2h-2.3L143.3,333z
	 M139.4,357.8h2.5c4.1,0,10.6-0.1,9.7,5.8c-0.9,5.8-7,5.8-11.1,5.8h-2.9L139.4,357.8z"/>
<polygon class="st0" points="223.5,386.1 226.5,367 204.3,367 205.4,360.1 225,360.1 227.9,341.9 208.3,341.9 209.4,335.2 
	230.8,335.2 233.8,316.1 186.8,316.1 175.7,386.1 "/>
<polygon class="st0" points="277,386.1 280.6,363.6 259.3,363.6 266.8,316.1 241.3,316.1 230.3,386.1 "/>
<path class="st0" d="M26,392l-6.2,39c-0.9,5.5-1.8,10.3-8.6,10.3S5,436.5,5.9,431l6.2-39h-25.5l-6.5,41.4
	c-3.2,20.4,8.1,29.7,27.7,29.7s33.9-9.3,37.1-29.7l6.5-41.4H26L26,392z"/>
<path class="st0" d="M104.4,392l-3.3,21c-0.9,5.9-0.8,12-0.7,17.8h-0.7L83,392H58.6l-11.1,70h24.3l3.6-22.7c0.7-4.6,0.7-9.2,0.6-14
	h0.7L93.3,462h24.3l11.1-70C128.7,392,104.4,392,104.4,392z"/>
<path class="st0" d="M170.3,390.9c-20.5,0-39.1,16.3-42.4,36.7c-3.2,20,10,35.4,29.9,35.4c4.5,0,14.1-0.8,18.5-2.8l4.9-26.2
	c-4.7,4-9.8,6.5-15.6,6.5c-7.6,0-13.3-5.9-12-13.6c1.2-7.6,8.4-13.6,16-13.6c5.8,0,10.3,3.3,13.8,7.1l3.5-26.6
	C181.9,391.9,176.1,390.9,170.3,390.9"/>
<path class="st0" d="M226.1,430.9c-0.9,5.5-1.8,10.3-8.6,10.3c-6.8,0-6.2-4.8-5.3-10.3l6.2-39H193l-6.5,41.4
	c-3.2,20.4,8.1,29.7,27.7,29.7s33.9-9.3,37.1-29.7l6.5-41.4h-25.4L226.1,430.9z"/>
<polygon class="st0" points="259.4,414.7 273.5,414.1 265.9,461.9 291.4,461.9 298.9,414.1 312.8,414.7 316.4,392 263,392 "/>
<path class="st0" d="M92.9,297.8c0,0-0.9-1.5-2.4-1c-1.1,0.4-0.9,1.7-0.9,1.7s-1-3.1,1.6-3.4c0,0,3.5-4.4,6.4-2.2c0,0,0.3,1,0.8,2
	c0.5,1.1,1.5,2.4,2.9,3.6c1.4,1.2,10.7,10.7,10.7,12c0,1.3-1.7,0.3-1.7,0.3s3.7,4.5,2.4,4.6c-1.3,0.1-9.5-5-11.5-5.5
	C99.2,309.2,93.5,307.8,92.9,297.8z"/>
<rect x="99.5" y="308.3" class="st0" width="0.8" height="9.5"/>
<rect x="101.1" y="308.3" class="st0" width="0.8" height="9.5"/>
<g>
	<path class="st0" d="M30.9,441c0,0-1.2,8.5,0.2,12.7c1.4,4.3,0.9,8.9,0.9,8.9s6.8-2.6,11,1.4c0,0-2.5-22.3-2.9-24.2
		C39.9,437.8,30.9,441,30.9,441z"/>
	<path class="st1" d="M44.3,466.6l-2-1.9c-1.3-1.3-3.2-1.9-5.4-1.9c-2.4,0-4.4,0.8-4.5,0.8l-1.5,0.6l0.2-1.6c0,0,0.4-4.5-0.9-8.4
		c-1.5-4.4-0.3-12.8-0.3-13.2l0.1-0.6l0.6-0.2c0.2-0.1,5.5-2,8.2-2c1.9,0,2.3,0.9,2.4,1.5c0.3,2,2.8,23.4,2.9,24.3L44.3,466.6z
		 M36.9,460.8c1.9,0,3.5,0.4,4.9,1.1c-0.6-5.5-2.2-19.3-2.6-21.7c-0.1,0-0.2,0-0.4,0c-1.8,0-5.2,1-6.9,1.6c-0.2,2-0.9,8.3,0.3,11.7
		c1,3,1.1,6.1,1.1,7.8C34.1,461,35.4,460.8,36.9,460.8z"/>
</g>
<g>
	<path class="st0" d="M-21.1,406.7c0,0,55.1,15.5,70.7,15.2c0,0,2.8,8.1-3.4,10.6c0,0-59.7-9.9-69-16.3
		C-22.8,416.1-25,411.6-21.1,406.7z"/>
	<path class="st1" d="M46.3,433.5H46c-2.4-0.4-60-10-69.4-16.5l-0.2-0.1l-0.1-0.2c-0.1-0.2-2.4-5.1,1.8-10.5l0.4-0.5l0.6,0.2
		C-20.4,406.1,33,421,49,421c0.2,0,0.4,0,0.5,0h0.7l0.2,0.7C51.5,424.8,52,431.3,46.3,433.5L46.3,433.5z M-22,415.4
		c9.4,6.1,63.7,15.2,68.1,16c4.1-1.8,3.2-6.7,2.8-8.5c-15.7-0.1-63.1-13.2-69.6-15C-23.2,411.4-22.3,414.6-22,415.4z"/>
</g>
<g>
	<path class="st0" d="M-20.6,424.2c0,0,55.5,0.5,69.7-3.8c0,0,5,6.8,0,10.6c0,0-58,5.9-68.5,2.2C-19.4,433.2-22.7,429.7-20.6,424.2z
		"/>
	<path class="st1" d="M-5.3,435.4c-7.2,0-11.9-0.4-14.4-1.2l-0.2-0.1l-0.2-0.2c-0.2-0.2-3.8-4.1-1.4-10.1l0.2-0.6h0.7c0,0,2,0,5.2,0
		c12.1,0,52.6-0.3,64.2-3.7l0.7-0.2l0.4,0.6c1.9,2.6,4.4,8.5-0.2,12l-0.2,0.2h-0.3C48.9,432,15.2,435.4-5.3,435.4z M-18.8,432.4
		c2.3,0.7,6.8,1,13.5,1c19.4,0,50.7-3.1,54.1-3.4c3.2-2.7,0.9-6.9,0-8.5c-12.3,3.3-48.7,3.6-64.1,3.6c-2.1,0-3.7,0-4.5,0
		C-21.1,429-19.3,431.7-18.8,432.4z"/>
</g>
<g>
	<path class="st0" d="M-15.1,397.6c0,0,44.4,31.8,59.8,36.6c0,0,2.9,11.1-4.1,11.5c0,0-55.6-27.9-60.5-40
		C-20,405.6-20.8,401.2-15.1,397.6z"/>
	<path class="st1" d="M40.4,446.6l-0.2-0.1c-2.3-1.1-56-28.2-61-40.6l-0.1-0.2c0-0.2-0.9-5.1,5.3-9.1l0.6-0.4l0.5,0.4
		c0.4,0.3,44.5,31.7,59.5,36.4l0.5,0.2l0.1,0.5c0.1,0.3,1.8,7-0.8,10.6c-1,1.3-2.4,2.1-4.2,2.2L40.4,446.6z M-19,405.3
		c4.8,11.3,55.8,37.3,59.8,39.3c1.1-0.1,1.9-0.5,2.5-1.3c1.5-2.1,1.1-6.4,0.6-8.4c-15-5.1-53.6-32.3-59-36.1
		C-19.2,401.6-19.1,404.8-19,405.3z"/>
</g>
<path class="st0" d="M305.4,394v-3.9c0-2.6-1.5-4.9-3.7-6.1v-2.2h-2.4v-4.1h2.1v-2.6h-2.1v-2.5h-2.6v2.5h-2.1v2.6h2.1v4.1h-2.4v2.2
	c-2.2,1.2-3.7,3.5-3.7,6.1v3.9C290.6,394,305.4,394,305.4,394z"/>
</svg>
